<svg width="28" height="26" viewBox="0 0 28 26" fill="none" xmlns="http://www.w3.org/2000/svg">
<path d="M11.2534 10.907C10.4749 10.907 9.86035 11.557 9.86035 12.35C9.86035 13.143 10.4886 13.793 11.2534 13.793C12.0318 13.793 12.6464 13.143 12.6464 12.35C12.66 11.557 12.0318 10.907 11.2534 10.907ZM16.2382 10.907C15.4597 10.907 14.8451 11.557 14.8451 12.35C14.8451 13.143 15.4734 13.793 16.2382 13.793C17.0166 13.793 17.6312 13.143 17.6312 12.35C17.6312 11.557 17.0166 10.907 16.2382 10.907Z" fill="white"/>
<path d="M22.8754 0H4.57507C3.03183 0 1.77539 1.196 1.77539 2.678V20.254C1.77539 21.736 3.03183 22.932 4.57507 22.932H20.0621L19.3383 20.527L21.0864 22.074L22.7388 23.53L25.6751 26V2.678C25.6751 1.196 24.4187 0 22.8754 0ZM17.6038 16.978C17.6038 16.978 17.1122 16.419 16.7025 15.925C18.4915 15.444 19.1744 14.378 19.1744 14.378C18.6144 14.729 18.0818 14.976 17.6038 15.145C16.921 15.418 16.2654 15.6 15.6236 15.704C14.3125 15.938 13.1107 15.873 12.0864 15.691C11.308 15.548 10.6388 15.34 10.0788 15.132C9.76472 15.015 9.4233 14.872 9.08187 14.69C9.0409 14.664 8.99993 14.651 8.95896 14.625C8.93165 14.612 8.91799 14.599 8.90433 14.586C8.65851 14.456 8.52194 14.365 8.52194 14.365C8.52194 14.365 9.17747 15.405 10.9119 15.899C10.5022 16.393 9.99689 16.978 9.99689 16.978C6.9787 16.887 5.83151 15.002 5.83151 15.002C5.83151 10.816 7.79812 7.423 7.79812 7.423C9.76472 6.019 11.6357 6.058 11.6357 6.058L11.7723 6.214C9.31404 6.89 8.18051 7.917 8.18051 7.917C8.18051 7.917 8.48097 7.761 8.98627 7.54C10.4476 6.929 11.6084 6.76 12.0864 6.721C12.1683 6.708 12.2366 6.695 12.3186 6.695C13.1517 6.591 14.094 6.565 15.0773 6.669C16.3747 6.812 17.7677 7.176 19.188 7.917C19.188 7.917 18.1091 6.942 15.7874 6.266L15.9786 6.058C15.9786 6.058 17.8497 6.019 19.8163 7.423C19.8163 7.423 21.7829 10.816 21.7829 15.002C21.7829 15.002 20.622 16.887 17.6038 16.978Z" fill="white"/>
</svg>
