<svg width="27" height="27" viewBox="0 0 27 27" fill="none" xmlns="http://www.w3.org/2000/svg">
<g clip-path="url(#clip0_11:102)">
<path d="M26.0564 13.004C26.0564 5.8221 20.2343 0 13.0524 0C5.87044 0 0.0483398 5.8221 0.0483398 13.004C0.0483398 19.4946 4.8037 24.8745 11.0205 25.8501V16.763H7.71869V13.004H11.0205V10.1391C11.0205 6.87995 12.962 5.0797 15.9323 5.0797C17.3546 5.0797 18.8432 5.33369 18.8432 5.33369V8.5339H17.2035C15.5882 8.5339 15.0843 9.53638 15.0843 10.5658V13.004H18.6908L18.1143 16.763H15.0843V25.8501C21.301 24.8745 26.0564 19.4946 26.0564 13.004Z" fill="white"/>
</g>
<defs>
<clipPath id="clip0_11:102">
<rect width="26.0081" height="26.0081" fill="white" transform="translate(0.0483398)"/>
</clipPath>
</defs>
</svg>
