<svg width="27" height="27" viewBox="0 0 27 27" fill="none" xmlns="http://www.w3.org/2000/svg">
<g clip-path="url(#clip0_11:106)">
<path d="M13.0201 2.34174C16.4947 2.34174 16.9061 2.35698 18.2726 2.41794C19.5425 2.47381 20.2282 2.68716 20.6854 2.86495C21.2899 3.09862 21.7268 3.38308 22.1788 3.83517C22.636 4.29235 22.9154 4.72412 23.1491 5.32861C23.3269 5.78578 23.5402 6.47662 23.5961 7.74146C23.657 9.11298 23.6723 9.52444 23.6723 12.9939C23.6723 16.4684 23.657 16.8798 23.5961 18.2463C23.5402 19.5162 23.3269 20.202 23.1491 20.6591C22.9154 21.2636 22.6309 21.7005 22.1788 22.1526C21.7217 22.6097 21.2899 22.8891 20.6854 23.1228C20.2282 23.3006 19.5374 23.5139 18.2726 23.5698C16.901 23.6308 16.4896 23.646 13.0201 23.646C9.54563 23.646 9.13418 23.6308 7.76774 23.5698C6.49781 23.5139 5.81205 23.3006 5.35488 23.1228C4.75039 22.8891 4.31354 22.6047 3.86145 22.1526C3.40427 21.6954 3.12489 21.2636 2.89122 20.6591C2.71343 20.202 2.50009 19.5111 2.44421 18.2463C2.38325 16.8748 2.36801 16.4633 2.36801 12.9939C2.36801 9.51936 2.38325 9.1079 2.44421 7.74146C2.50009 6.47154 2.71343 5.78578 2.89122 5.32861C3.12489 4.72412 3.40935 4.28727 3.86145 3.83517C4.31862 3.378 4.75039 3.09862 5.35488 2.86495C5.81205 2.68716 6.50289 2.47381 7.76774 2.41794C9.13418 2.35698 9.54563 2.34174 13.0201 2.34174ZM13.0201 0C9.48975 0 9.04782 0.0152391 7.66106 0.0761955C6.27938 0.137152 5.32948 0.360659 4.50657 0.68068C3.6481 1.01594 2.9217 1.45787 2.20038 2.18427C1.47399 2.90559 1.03205 3.63199 0.696793 4.48538C0.376772 5.31337 0.153265 6.25819 0.0923088 7.63987C0.0313524 9.03171 0.0161133 9.47364 0.0161133 13.004C0.0161133 16.5344 0.0313524 16.9764 0.0923088 18.3631C0.153265 19.7448 0.376772 20.6947 0.696793 21.5176C1.03205 22.3761 1.47399 23.1025 2.20038 23.8238C2.9217 24.5451 3.6481 24.9921 4.50149 25.3223C5.32948 25.6423 6.2743 25.8658 7.65598 25.9268C9.04274 25.9877 9.48467 26.003 13.0151 26.003C16.5455 26.003 16.9874 25.9877 18.3741 25.9268C19.7558 25.8658 20.7057 25.6423 21.5286 25.3223C22.382 24.9921 23.1084 24.5451 23.8297 23.8238C24.5511 23.1025 24.9981 22.3761 25.3283 21.5227C25.6483 20.6947 25.8718 19.7499 25.9327 18.3682C25.9937 16.9814 26.0089 16.5395 26.0089 13.0091C26.0089 9.47872 25.9937 9.03679 25.9327 7.65003C25.8718 6.26835 25.6483 5.31845 25.3283 4.49553C25.0082 3.63199 24.5663 2.90559 23.8399 2.18427C23.1186 1.46295 22.3922 1.01594 21.5388 0.685759C20.7108 0.365738 19.766 0.142232 18.3843 0.0812752C16.9925 0.0152391 16.5505 0 13.0201 0Z" fill="white"/>
<path d="M13.0201 6.32422C9.33228 6.32422 6.34033 9.31616 6.34033 13.004C6.34033 16.6919 9.33228 19.6838 13.0201 19.6838C16.708 19.6838 19.6999 16.6919 19.6999 13.004C19.6999 9.31616 16.708 6.32422 13.0201 6.32422ZM13.0201 17.337C10.6276 17.337 8.68715 15.3966 8.68715 13.004C8.68715 10.6115 10.6276 8.67104 13.0201 8.67104C15.4127 8.67104 17.3531 10.6115 17.3531 13.004C17.3531 15.3966 15.4127 17.337 13.0201 17.337Z" fill="white"/>
<path d="M21.5236 6.05996C21.5236 6.92351 20.8226 7.61943 19.9641 7.61943C19.1006 7.61943 18.4047 6.91843 18.4047 6.05996C18.4047 5.19641 19.1057 4.50049 19.9641 4.50049C20.8226 4.50049 21.5236 5.20149 21.5236 6.05996Z" fill="white"/>
</g>
<defs>
<clipPath id="clip0_11:106">
<rect width="26.0081" height="26.0081" fill="white" transform="translate(0.0161133)"/>
</clipPath>
</defs>
</svg>
