<svg width="27" height="27" viewBox="0 0 27 27" fill="none" xmlns="http://www.w3.org/2000/svg">
<g clip-path="url(#clip0_11:111)">
<path d="M24.1151 0H1.95235C0.890696 0 0.0322266 0.838151 0.0322266 1.87441V24.1286C0.0322266 25.1648 0.890696 26.0081 1.95235 26.0081H24.1151C25.1767 26.0081 26.0403 25.1648 26.0403 24.1337V1.87441C26.0403 0.838151 25.1767 0 24.1151 0ZM7.74829 22.1627H3.88772V9.74794H7.74829V22.1627ZM5.81801 8.0564C4.57856 8.0564 3.57786 7.0557 3.57786 5.82134C3.57786 4.58697 4.57856 3.58627 5.81801 3.58627C7.05237 3.58627 8.05307 4.58697 8.05307 5.82134C8.05307 7.05062 7.05237 8.0564 5.81801 8.0564ZM22.195 22.1627H18.3395V16.128C18.3395 14.6905 18.3141 12.8364 16.333 12.8364C14.3265 12.8364 14.0217 14.406 14.0217 16.0265V22.1627H10.1713V9.74794H13.8693V11.4446H13.9201C14.4332 10.4693 15.6929 9.43808 17.5674 9.43808C21.4736 9.43808 22.195 12.0084 22.195 15.3509V22.1627Z" fill="white"/>
</g>
<defs>
<clipPath id="clip0_11:111">
<rect width="26.0081" height="26.0081" fill="white" transform="translate(0.0322266)"/>
</clipPath>
</defs>
</svg>
