<svg width="27" height="26" viewBox="0 0 27 26" fill="none" xmlns="http://www.w3.org/2000/svg">
<path d="M15.2296 12.8134C15.2296 16.8984 11.8203 20.2099 7.61494 20.2099C3.40957 20.2099 0 16.8976 0 12.8134C0 8.72923 3.40931 5.41675 7.61494 5.41675C11.8206 5.41675 15.2296 8.72848 15.2296 12.8134Z" fill="white"/>
<path d="M23.5832 12.8133C23.5832 16.6583 21.8786 19.7767 19.7757 19.7767C17.6729 19.7767 15.9683 16.6583 15.9683 12.8133C15.9683 8.96816 17.6727 5.84985 19.7755 5.84985C21.8783 5.84985 23.583 8.96716 23.583 12.8133" fill="white"/>
<path d="M27 12.8133C27 16.2576 26.4005 19.0514 25.6609 19.0514C24.9212 19.0514 24.322 16.2583 24.322 12.8133C24.322 9.36829 24.9215 6.5752 25.6609 6.5752C26.4003 6.5752 27 9.36804 27 12.8133Z" fill="white"/>
</svg>
