<svg width="27" height="27" viewBox="0 0 27 27" fill="none" xmlns="http://www.w3.org/2000/svg">
<g clip-path="url(#clip0_11:104)">
<path d="M8.18187 23.5698C17.9938 23.5698 23.362 15.4388 23.362 8.38966C23.362 8.16107 23.357 7.9274 23.3468 7.69882C24.3911 6.94361 25.2923 6.00818 26.0081 4.93647C25.0355 5.36919 24.0029 5.65179 22.9455 5.77463C24.0588 5.10727 24.8925 4.05889 25.2918 2.82383C24.2444 3.44454 23.099 3.8824 21.9047 4.11864C21.1 3.26357 20.0359 2.69742 18.8772 2.5077C17.7184 2.31799 16.5294 2.51529 15.494 3.06909C14.4586 3.6229 13.6345 4.50236 13.1491 5.57152C12.6636 6.64067 12.5439 7.83997 12.8085 8.98398C10.6877 8.87756 8.61294 8.32663 6.71873 7.36693C4.82452 6.40723 3.15315 5.06016 1.81294 3.41307C1.13178 4.58747 0.923348 5.97717 1.23 7.29973C1.53665 8.62229 2.33538 9.77847 3.46385 10.5333C2.61666 10.5064 1.78803 10.2783 1.04642 9.86785V9.93388C1.04566 11.1663 1.47173 12.361 2.2522 13.3148C3.03267 14.2687 4.11938 14.9228 5.32759 15.166C4.5428 15.3807 3.71913 15.412 2.92032 15.2574C3.26125 16.3173 3.92459 17.2444 4.81775 17.9091C5.7109 18.5739 6.78932 18.9432 7.90249 18.9656C6.01266 20.4501 3.67816 21.2553 1.275 21.2515C0.848824 21.2508 0.423063 21.2247 0 21.1732C2.44135 22.7395 5.2813 23.5713 8.18187 23.5698Z" fill="white"/>
</g>
<defs>
<clipPath id="clip0_11:104">
<rect width="26.0081" height="26.0081" fill="white"/>
</clipPath>
</defs>
</svg>
